<svg viewBox="0 0 510 340" xmlns="http://www.w3.org/2000/svg" fill="none"><defs><linearGradient id="cardGrad" x1="0" y1="0" x2="0" y2="1"><stop offset="0%" stop-color="#E9ECFF"/><stop offset="100%" stop-color="#D1C2F2"/></linearGradient><linearGradient id="cardHighlight" x1="0" y1="0" x2="1" y2="1"><stop offset="0%" stop-color="#FFF" stop-opacity=".55"/><stop offset="55%" stop-color="#FFF" stop-opacity="0"/></linearGradient><linearGradient id="playGrad" x1="0" y1="0" x2="1" y2="1"><stop offset="0%" stop-color="#7B5BFF"/><stop offset="100%" stop-color="#5A3FD9"/></linearGradient><linearGradient id="progressGrad" x1="0" y1="0" x2="1" y2="0"><stop offset="0%" stop-color="#7B5BFF"/><stop offset="100%" stop-color="#9F86FF"/></linearGradient><filter id="cardShadow" x="-50%" y="-50%" width="200%" height="200%"><feDropShadow dx="0" dy="6" stdDeviation="10" flood-color="#5B3FD9" flood-opacity=".18"/></filter><filter id="badgeShadow" x="-50%" y="-50%" width="200%" height="200%"><feDropShadow dx="0" dy="4" stdDeviation="6" flood-color="#3A2F7A" flood-opacity=".18"/></filter><filter id="playShadow" x="-50%" y="-50%" width="200%" height="200%"><feDropShadow dx="0" dy="6" stdDeviation="10" flood-color="#5A3FD9" flood-opacity=".4"/></filter><path id="sparkle" d="M0-10C0-3-3 0-10 0-3 0 0 3 0 10 0 3 3 0 10 0 3 0 0-3 0-10Z"/></defs><g fill="#B7A4E0"><use href="#sparkle" transform="matrix(1.1 0 0 1.1 45 180)"/><use href="#sparkle" transform="matrix(.95 0 0 .95 465 135)"/><use href="#sparkle" transform="matrix(.85 0 0 .85 155 30)"/><use href="#sparkle" transform="matrix(.9 0 0 .9 370 305)"/><use href="#sparkle" transform="matrix(.7 0 0 .7 255 322)" opacity=".8"/><use href="#sparkle" transform="matrix(.6 0 0 .6 485 270)" opacity=".75"/></g><g filter="url('#cardShadow')"><rect x="80" y="50" width="350" height="220" rx="20" fill="url('#cardGrad')"/><rect x="80" y="50" width="350" height="220" rx="20" fill="url('#cardHighlight')"/><rect x="80.5" y="50.5" width="349" height="219" rx="19.5" stroke="#FFF" stroke-opacity=".55"/></g><g fill="#9686D1"><rect x="115" y="148" width="4" height="24" rx="2"/><rect x="124" y="138" width="4" height="44" rx="2"/><rect x="133" y="125" width="4" height="70" rx="2"/><rect x="142" y="115" width="4" height="90" rx="2"/><rect x="151" y="130" width="4" height="60" rx="2"/><rect x="160" y="120" width="4" height="80" rx="2"/><rect x="169" y="135" width="4" height="50" rx="2"/><rect x="178" y="110" width="4" height="100" rx="2"/><rect x="187" y="125" width="4" height="70" rx="2"/><rect x="196" y="140" width="4" height="40" rx="2"/><rect x="205" y="130" width="4" height="60" rx="2"/><rect x="214" y="145" width="4" height="30" rx="2"/><rect x="292" y="145" width="4" height="30" rx="2"/><rect x="301" y="130" width="4" height="60" rx="2"/><rect x="310" y="140" width="4" height="40" rx="2"/><rect x="319" y="125" width="4" height="70" rx="2"/><rect x="328" y="110" width="4" height="100" rx="2"/><rect x="337" y="135" width="4" height="50" rx="2"/><rect x="346" y="120" width="4" height="80" rx="2"/><rect x="355" y="130" width="4" height="60" rx="2"/><rect x="364" y="115" width="4" height="90" rx="2"/><rect x="373" y="125" width="4" height="70" rx="2"/><rect x="382" y="138" width="4" height="44" rx="2"/><rect x="391" y="148" width="4" height="24" rx="2"/></g><g filter="url('#playShadow')"><circle cx="255" cy="160" r="36" fill="url('#playGrad')"/></g><path d="M247 146v28l24-14Z" fill="#FFF"/><rect x="105" y="232" width="300" height="6" rx="3" fill="#FFF" fill-opacity=".55"/><rect x="105" y="232" width="95" height="6" rx="3" fill="url('#progressGrad')"/><circle cx="200" cy="235" r="5" fill="#FFF"/><g fill="#A993D9" opacity=".85"><use href="#sparkle" transform="matrix(.55 0 0 .55 108 78)"/><use href="#sparkle" transform="matrix(.5 0 0 .5 395 245)"/></g><g filter="url('#badgeShadow')"><circle cx="420" cy="65" r="30" fill="#FFF"/></g><path d="m431.16 64.67-14.56 15.6a1.04 1.04 0 0 1-1.78-.91l1.907-9.533-7.492-2.813a1.04 1.04 0 0 1-.39-1.69l14.56-15.6a1.04 1.04 0 0 1 1.78.91l-1.912 9.543 7.492 2.81a1.04 1.04 0 0 1 .39 1.683Z" fill="#FFB400"/><g filter="url('#badgeShadow')"><circle cx="90" cy="255" r="30" fill="#FFF"/></g><g transform="matrix(.18 0 0 .18 67 232)" stroke="#2F80ED" stroke-width="22" stroke-linecap="round" stroke-linejoin="round"><circle cx="128" cy="128" r="92"/><path d="M128 76v52l40 24"/></g><g filter="url('#badgeShadow')"><circle cx="420" cy="255" r="30" fill="#FFF"/></g><path d="M412.8 255v-9.6a7.2 7.2 0 0 1 14.4 0v9.6a7.2 7.2 0 0 1-14.4 0Zm19.2-1.2a1.2 1.2 0 0 0-1.2 1.2 10.8 10.8 0 0 1-21.6 0 1.2 1.2 0 0 0-2.4 0 13.216 13.216 0 0 0 12 13.149v2.451a1.2 1.2 0 0 0 2.4 0v-2.451a13.216 13.216 0 0 0 12-13.149 1.2 1.2 0 0 0-1.2-1.2Z" fill="#5B3FD9"/></svg>